<svg width="58" height="58" viewBox="0 0 58 58" fill="none" xmlns="http://www.w3.org/2000/svg">
<path d="M28.9997 50.7502C25.9473 48.1465 23.118 45.2922 20.5413 42.2169C16.6747 37.5987 12.083 30.7208 12.083 24.1668C12.0813 20.8197 13.0727 17.5472 14.9315 14.7637C16.7904 11.9801 19.4332 9.81054 22.5256 8.52956C25.618 7.24858 29.0208 6.91376 32.3035 7.56747C35.5863 8.22118 38.6013 9.83404 40.967 12.2019C42.5421 13.77 43.7905 15.6349 44.6401 17.6887C45.4896 19.7424 45.9234 21.9443 45.9163 24.1668C45.9163 30.7208 41.3247 37.5987 37.458 42.2169C34.8814 45.2922 32.0521 48.1465 28.9997 50.7502ZM28.9997 16.9168C27.0769 16.9168 25.2328 17.6807 23.8732 19.0403C22.5135 20.4 21.7497 22.244 21.7497 24.1668C21.7497 26.0897 22.5135 27.9337 23.8732 29.2934C25.2328 30.653 27.0769 31.4169 28.9997 31.4169C30.9225 31.4169 32.7666 30.653 34.1262 29.2934C35.4858 27.9337 36.2497 26.0897 36.2497 24.1668C36.2497 22.244 35.4858 20.4 34.1262 19.0403C32.7666 17.6807 30.9225 16.9168 28.9997 16.9168Z" fill="black"/>
</svg>
