<svg width="50" height="50" viewBox="0 0 50 50" fill="none" xmlns="http://www.w3.org/2000/svg">
<path d="M37.5 20.3125H34.375C34.3738 19.0697 33.8795 17.8781 33.0007 16.9993C32.1219 16.1205 30.9303 15.6262 29.6875 15.625V12.5C31.7587 12.5025 33.7444 13.3264 35.209 14.791C36.6736 16.2556 37.4975 18.2413 37.5 20.3125Z" fill="black"/>
<path d="M43.7505 20.3125H40.6255C40.6222 17.4127 39.4687 14.6326 37.4183 12.5822C35.3678 10.5317 32.5877 9.37832 29.688 9.37501V6.25001C33.4163 6.25415 36.9907 7.73706 39.6271 10.3734C42.2634 13.0097 43.7463 16.5842 43.7505 20.3125ZM31.7708 33.5656L35.2708 30.0656C35.7393 29.597 36.335 29.2762 36.984 29.1429C37.6331 29.0096 38.3071 29.0696 38.9223 29.3156L43.1848 31.0219C43.8131 31.2733 44.3516 31.7071 44.7309 32.2675C45.1103 32.8278 45.313 33.489 45.313 34.1656V41.9172C45.3141 42.3779 45.2211 42.834 45.0398 43.2576C44.8585 43.6811 44.5927 44.0632 44.2586 44.3805C43.9246 44.6978 43.5292 44.9435 43.0969 45.1027C42.6645 45.2619 42.2043 45.3311 41.7442 45.3063C11.8661 43.4469 5.83171 18.1406 4.71139 8.45001C4.65713 7.97626 4.70379 7.49638 4.84829 7.04195C4.99279 6.58751 5.23187 6.16882 5.54979 5.81341C5.86771 5.458 6.25727 5.17393 6.69285 4.97987C7.12844 4.78582 7.60017 4.68618 8.07702 4.68751H15.6911C16.3678 4.68749 17.0289 4.89022 17.5893 5.26954C18.1496 5.64887 18.5835 6.18739 18.8348 6.81564L20.5395 11.0781C20.7855 11.6934 20.8456 12.3673 20.7123 13.0164C20.579 13.6655 20.2581 14.2612 19.7895 14.7297L16.2895 18.2297C16.2895 18.2297 18.2301 31.8734 31.7708 33.5656Z" fill="black"/>
</svg>
