<svg width="101" height="101" viewBox="0 0 101 101" fill="none" xmlns="http://www.w3.org/2000/svg">
<g clip-path="url(#clip0_1_7)">
<path d="M22.0937 37.875C26.4635 37.875 30.7351 39.1708 34.3684 41.5985C38.0017 44.0261 40.8335 47.4767 42.5057 51.5138C44.1779 55.5509 44.6155 59.9932 43.763 64.279C42.9105 68.5648 40.8062 72.5015 37.7164 75.5914C34.6265 78.6812 30.6898 80.7855 26.404 81.638C22.1182 82.4905 17.6759 82.0529 13.6388 80.3807C9.60172 78.7085 6.15115 75.8767 3.72346 72.2434C1.29576 68.6101 -1.52588e-05 64.3385 -1.52588e-05 59.9687L-0.101013 56.8125C-0.101013 51.0097 1.04193 45.2637 3.26256 39.9027C5.48318 34.5416 8.73801 29.6704 12.8412 25.5672C16.9444 21.464 21.8156 18.2092 27.1767 15.9886C32.5377 13.7679 38.2837 12.625 44.0865 12.625V25.25C39.9398 25.2388 35.8321 26.0498 32.0008 27.6361C28.1695 29.2224 24.6907 31.5524 21.7655 34.4915C20.6286 35.6263 19.5798 36.846 18.6282 38.1401C19.7746 37.96 20.9333 37.8692 22.0937 37.8687V37.875ZM78.9062 37.875C83.276 37.875 87.5476 39.1708 91.1809 41.5985C94.8142 44.0261 97.646 47.4767 99.3182 51.5138C100.99 55.5509 101.428 59.9932 100.575 64.279C99.723 68.5648 97.6187 72.5015 94.5289 75.5914C91.439 78.6812 87.5023 80.7855 83.2165 81.638C78.9307 82.4905 74.4884 82.0529 70.4513 80.3807C66.4142 78.7085 62.9636 75.8767 60.536 72.2434C58.1083 68.6101 56.8125 64.3385 56.8125 59.9687L56.7115 56.8125C56.7115 45.0932 61.3669 33.854 69.6537 25.5672C77.9405 17.2804 89.1797 12.625 100.899 12.625V25.25C96.7523 25.2388 92.6446 26.0498 88.8133 27.6361C84.982 29.2224 81.5032 31.5524 78.578 34.4915C77.4411 35.6263 76.3923 36.846 75.4407 38.1401C76.5871 37.96 77.7458 37.8692 78.9062 37.8687V37.875Z" fill="#DB0000"/>
</g>
<defs>
<clipPath id="clip0_1_7">
<rect width="101" height="101" fill="white" transform="translate(101 101) rotate(-180)"/>
</clipPath>
</defs>
</svg>
