<svg width="101" height="101" viewBox="0 0 101 101" fill="none" xmlns="http://www.w3.org/2000/svg">
<g clip-path="url(#clip0_1_5)">
<path d="M78.9063 63.125C74.5365 63.125 70.2649 61.8292 66.6316 59.4015C62.9983 56.9739 60.1665 53.5233 58.4943 49.4862C56.8221 45.4491 56.3845 41.0068 57.237 36.721C58.0895 32.4352 60.1938 28.4985 63.2836 25.4086C66.3735 22.3188 70.3102 20.2145 74.596 19.362C78.8818 18.5095 83.3241 18.9471 87.3612 20.6193C91.3983 22.2915 94.8489 25.1233 97.2765 28.7566C99.7042 32.3899 101 36.6615 101 41.0313L101.101 44.1875C101.101 49.9903 99.9581 55.7363 97.7374 61.0973C95.5168 66.4584 92.262 71.3296 88.1588 75.4328C84.0556 79.536 79.1844 82.7908 73.8233 85.0114C68.4623 87.2321 62.7163 88.375 56.9135 88.375V75.75C61.0602 75.7612 65.1679 74.9502 68.9992 73.3639C72.8305 71.7776 76.3093 69.4476 79.2345 66.5085C80.3714 65.3737 81.4202 64.154 82.3718 62.8599C81.2254 63.04 80.0667 63.1308 78.9063 63.1313V63.125ZM22.0938 63.125C17.724 63.125 13.4524 61.8292 9.81913 59.4015C6.18583 56.9739 3.35402 53.5233 1.6818 49.4862C0.00957304 45.4491 -0.427957 41.0068 0.424535 36.721C1.27703 32.4352 3.38125 28.4985 6.47112 25.4086C9.56099 22.3188 13.4977 20.2145 17.7835 19.362C22.0693 18.5095 26.5116 18.9471 30.5487 20.6193C34.5858 22.2915 38.0364 25.1233 40.464 28.7566C42.8917 32.3899 44.1875 36.6615 44.1875 41.0313L44.2885 44.1875C44.2885 55.9068 39.6331 67.146 31.3463 75.4328C23.0595 83.7196 11.8203 88.375 0.10101 88.375V75.75C4.24768 75.7612 8.35542 74.9502 12.1867 73.3639C16.018 71.7776 19.4968 69.4476 22.422 66.5085C23.5589 65.3737 24.6077 64.154 25.5593 62.8599C24.4129 63.04 23.2542 63.1308 22.0938 63.1313V63.125Z" fill="#DB0000"/>
</g>
<defs>
<clipPath id="clip0_1_5">
<rect width="101" height="101" fill="white"/>
</clipPath>
</defs>
</svg>
