<svg width="19" height="18" viewBox="0 0 19 18" fill="none" xmlns="http://www.w3.org/2000/svg">
<path d="M18.4365 7.25781V8H13.7832V7.35059L16.1123 4.75781C16.3988 4.4388 16.6201 4.16862 16.7764 3.94727C16.9359 3.72266 17.0465 3.52246 17.1084 3.34668C17.1735 3.16764 17.2061 2.98535 17.2061 2.7998C17.2061 2.56543 17.1572 2.35384 17.0596 2.16504C16.9652 1.97298 16.8252 1.81999 16.6396 1.70605C16.4541 1.59212 16.2295 1.53516 15.9658 1.53516C15.6501 1.53516 15.3864 1.59701 15.1748 1.7207C14.9665 1.84115 14.8102 2.01042 14.7061 2.22852C14.6019 2.44661 14.5498 2.69727 14.5498 2.98047H13.6465C13.6465 2.58008 13.7344 2.21387 13.9102 1.88184C14.0859 1.5498 14.3464 1.28613 14.6914 1.09082C15.0365 0.892253 15.4613 0.792969 15.9658 0.792969C16.415 0.792969 16.7992 0.872721 17.1182 1.03223C17.4372 1.18848 17.6813 1.40983 17.8506 1.69629C18.0231 1.97949 18.1094 2.31152 18.1094 2.69238C18.1094 2.90072 18.0736 3.1123 18.002 3.32715C17.9336 3.53874 17.8376 3.75033 17.7139 3.96191C17.5934 4.1735 17.4518 4.38184 17.2891 4.58691C17.1296 4.79199 16.9587 4.99382 16.7764 5.19238L14.8721 7.25781H18.4365Z" fill="#413F44"/>
<path d="M1.96094 6.04688H3.23926L6.5 14.1611L9.75391 6.04688H11.0391L6.99219 16H5.99414L1.96094 6.04688ZM1.54395 6.04688H2.67188L2.85645 12.1172V16H1.54395V6.04688ZM10.3213 6.04688H11.4492V16H10.1367V12.1172L10.3213 6.04688Z" fill="#413F44"/>
</svg>
